<?xml version="1.0" encoding="UTF-8" standalone="no"?><!DOCTYPE svg PUBLIC "-//W3C//DTD SVG 1.1//EN" "http://www.w3.org/Graphics/SVG/1.1/DTD/svg11.dtd"><svg width="100%" height="100%" viewBox="0 0 4267 4267" version="1.1" xmlns="http://www.w3.org/2000/svg" xmlns:xlink="http://www.w3.org/1999/xlink" xml:space="preserve" xmlns:serif="http://www.serif.com/" style="fill-rule:evenodd;clip-rule:evenodd;stroke-linecap:round;stroke-linejoin:round;stroke-miterlimit:1.5;"><rect id="Predixa-Logo" serif:id="Predixa Logo" x="0" y="0" width="4266.481" height="4266.481" style="fill:none;"/><g id="Predict-Logo" serif:id="Predict Logo"><path d="M811.671,197.847c49.04,-71.561 107.858,-56.923 129.16,-17.025c21.302,39.898 5.086,105.055 -40.54,162.892c-32.748,43.744 -97.846,79.437 -150.068,101.037c-36.006,-43.557 -76.78,-105.599 -85.204,-159.59c-13.193,-72.476 3.023,-137.633 40.54,-162.892c37.517,-25.259 96.335,-10.621 106.113,75.579Zm-152.538,612.914c-49.04,71.561 -107.858,56.923 -129.16,17.025c-21.302,-39.898 -5.086,-105.055 40.54,-162.892c32.748,-43.744 97.846,-79.437 150.068,-101.037c36.006,43.557 76.78,105.599 85.204,159.59c13.193,72.476 -3.023,137.633 -40.54,162.892c-37.517,25.259 -96.335,10.621 -106.113,-75.579Zm382.726,-230.188c71.561,49.04 56.923,107.858 17.025,129.16c-39.898,21.302 -105.055,5.086 -162.892,-40.54c-43.744,-32.748 -79.437,-97.846 -101.037,-150.068c43.557,-36.006 105.599,-76.78 159.59,-85.204c72.476,-13.193 137.633,3.023 162.892,40.54c25.259,37.517 10.621,96.335 -75.579,106.113Zm-612.914,-152.538c-71.561,-49.04 -56.923,-107.858 -17.025,-129.16c39.898,-21.302 105.055,-5.086 162.892,40.54c43.744,32.748 79.437,97.846 101.037,150.068c-43.557,36.006 -105.599,76.78 -159.59,85.204c-72.476,13.193 -137.633,-3.023 -162.892,-40.54c-25.259,-37.517 -10.621,-96.335 75.579,-106.113Z" style="fill:#0f7a4b;"/><path d="M584.938,254.122c-3.937,-88.816 29.899,-162.685 78.04,-195.097c42.138,-28.37 96.316,-32.985 142.627,-7.653c12.228,6.688 24.446,15.754 35.622,27.714c15.478,-5.327 30.521,-7.607 44.457,-7.784c52.782,-0.67 98.477,28.801 122.402,73.612c27.343,51.213 22.596,132.361 -22.503,208.927c88.816,-3.937 162.685,29.899 195.097,78.04c28.37,42.138 32.985,96.316 7.653,142.627c-6.688,12.228 -15.754,24.446 -27.714,35.622c5.327,15.478 7.607,30.521 7.784,44.457c0.67,52.782 -28.801,98.477 -73.612,122.402c-51.213,27.343 -132.361,22.596 -208.927,-22.503c3.937,88.816 -29.899,162.685 -78.04,195.097c-42.138,28.37 -96.316,32.985 -142.627,7.653c-12.228,-6.688 -24.446,-15.754 -35.622,-27.714c-15.478,5.327 -30.521,7.607 -44.457,7.784c-52.782,0.67 -98.477,-28.801 -122.402,-73.612c-27.343,-51.213 -22.596,-132.361 22.503,-208.927c-88.816,3.937 -162.685,-29.899 -195.097,-78.04c-28.37,-42.138 -32.985,-96.316 -7.653,-142.627c6.688,-12.228 15.754,-24.446 27.714,-35.622c-5.327,-15.478 -7.607,-30.521 -7.784,-44.457c-0.67,-52.782 28.801,-98.477 73.612,-122.402c51.213,-27.343 132.361,-22.596 208.927,22.503Zm74.195,556.64c9.778,86.2 68.596,100.838 106.113,75.579c37.517,-25.259 53.733,-90.416 40.54,-162.892c-8.424,-53.991 -49.199,-116.033 -85.204,-159.59c-52.222,21.6 -117.32,57.293 -150.068,101.037c-45.626,57.837 -61.842,122.994 -40.54,162.892c21.301,39.898 80.119,54.536 129.16,-17.025Zm-230.188,-382.726c-86.2,9.778 -100.838,68.596 -75.579,106.113c25.259,37.517 90.416,53.733 162.892,40.54c53.991,-8.424 116.033,-49.199 159.59,-85.204c-21.6,-52.222 -57.293,-117.32 -101.037,-150.068c-57.837,-45.626 -122.994,-61.842 -162.892,-40.54c-39.898,21.301 -54.536,80.119 17.025,129.16Zm612.914,152.538c86.2,-9.778 100.838,-68.596 75.579,-106.113c-25.259,-37.517 -90.416,-53.733 -162.892,-40.54c-53.991,8.424 -116.033,49.199 -159.59,85.204c21.6,52.222 57.293,117.32 101.037,150.068c57.837,45.626 122.994,61.842 162.892,40.54c39.898,-21.301 54.536,-80.119 -17.025,-129.16Zm-230.188,-382.726c-9.778,-86.2 -68.596,-100.838 -106.113,-75.579c-37.517,25.259 -53.733,90.416 -40.54,162.892c8.424,53.991 49.199,116.033 85.204,159.59c52.222,-21.6 117.32,-57.293 150.068,-101.037c45.626,-57.837 61.842,-122.994 40.54,-162.892c-21.301,-39.898 -80.119,-54.536 -129.16,17.025Z" style="fill:#272525;"/><path d="M811.671,197.847c49.04,-71.561 107.858,-56.923 129.16,-17.025c21.302,39.898 5.086,105.055 -40.54,162.892c-32.748,43.744 -97.846,79.437 -150.068,101.037c-36.006,-43.557 -76.78,-105.599 -85.204,-159.59c-13.193,-72.476 3.023,-137.633 40.54,-162.892c37.517,-25.259 96.335,-10.621 106.113,75.579Zm-152.538,612.914c-49.04,71.561 -107.858,56.923 -129.16,17.025c-21.302,-39.898 -5.086,-105.055 40.54,-162.892c32.748,-43.744 97.846,-79.437 150.068,-101.037c36.006,43.557 76.78,105.599 85.204,159.59c13.193,72.476 -3.023,137.633 -40.54,162.892c-37.517,25.259 -96.335,10.621 -106.113,-75.579Zm382.726,-230.188c71.561,49.04 56.923,107.858 17.025,129.16c-39.898,21.302 -105.055,5.086 -162.892,-40.54c-43.744,-32.748 -79.437,-97.846 -101.037,-150.068c43.557,-36.006 105.599,-76.78 159.59,-85.204c72.476,-13.193 137.633,3.023 162.892,40.54c25.259,37.517 10.621,96.335 -75.579,106.113Zm-612.914,-152.538c-71.561,-49.04 -56.923,-107.858 -17.025,-129.16c39.898,-21.302 105.055,-5.086 162.892,40.54c43.744,32.748 79.437,97.846 101.037,150.068c-43.557,36.006 -105.599,76.78 -159.59,85.204c-72.476,13.193 -137.633,-3.023 -162.892,-40.54c-25.259,-37.517 -10.621,-96.335 75.579,-106.113Z" style="fill:none;stroke:#e3c36a;stroke-width:26.29px;"/><path d="M1280.282,159.152l621.498,-0c63.38,0 152.304,-0.242 233.699,-0.078c80.61,-0.166 114.939,-0.044 178.32,-0.044c46.367,0 80.872,38.172 80.872,96.371l0,2578.46c0,63.681 -231.181,242.114 -259.186,217.59c-28.005,24.525 -259.186,-153.909 -259.186,-217.59l0,-2159.588c-16.671,-0 -322.611,-2.261 -585.233,-4.218c28.878,-75.23 44.706,-156.906 44.706,-242.249c0,-95.432 -19.791,-186.278 -55.489,-268.654Zm-366.955,896.034l0.043,1390.391c0,102.593 302.078,454.565 329.433,484.532c15.441,16.915 271.026,284.423 439.317,411.846c166.863,126.34 399.609,237.558 453.363,239.524c53.754,-1.966 286.501,-113.184 453.363,-239.524c168.292,-127.422 423.876,-394.93 439.317,-411.846c27.355,-29.967 329.433,-381.939 329.433,-484.532c0,-59.623 0.818,-1760.502 0.818,-1778.331l-578.002,-0c-76.397,0 -109.829,-34.229 -109.829,-127.024l0,-284.822c0,-75.857 33.972,-96.249 109.829,-96.249l1016.556,0c38.561,0 79.055,19.684 79.055,103.461c0,28.311 -2.423,97.352 -0.557,1073.65c0.168,87.721 1.922,1029.38 -1.907,1109.314c-11.192,233.689 -191.644,574.481 -513.541,896.378c-305.277,305.277 -723.4,574.356 -771.174,604.344c-158.531,99.51 -200.959,122.502 -250.433,150.586c-35.484,20.143 -145.183,93.854 -202.93,88.983c-57.747,4.871 -167.446,-68.84 -202.93,-88.983c-49.474,-28.084 -91.903,-51.076 -250.433,-150.586c-47.773,-29.987 -465.896,-299.066 -771.174,-604.344c-321.897,-321.897 -502.349,-662.689 -513.541,-896.378c-3.828,-79.934 -2.074,-1021.593 -1.907,-1109.314c0.201,-104.989 0.352,-199.486 0.462,-284.568c80.844,34.144 169.682,53.025 262.895,53.025c89.987,0 175.896,-17.597 254.471,-49.535Z" style="fill:url(#_Linear1);"/><path d="M1280.282,86.652l621.498,-0c63.38,0 152.289,-0.242 233.694,-0.078c80.574,-0.165 114.928,-0.044 178.325,-0.044c84.076,0 153.372,63.341 153.372,168.871l0,2578.46c0,26.17 -16.032,67.132 -51.354,108.418c-54.158,63.304 -153.435,139.784 -211.344,167.478c-26.479,12.663 -49.077,16.838 -63.72,16.46c-1.796,-0.046 -3.557,-0.141 -5.256,-0.28c-1.725,0.14 -3.486,0.234 -5.281,0.28c-14.643,0.378 -37.241,-3.797 -63.72,-16.46c-57.91,-27.694 -157.186,-104.174 -211.344,-167.478c-35.321,-41.286 -51.354,-82.248 -51.354,-108.418l-0,-2087.547c-109.289,-0.761 -322.678,-2.34 -513.273,-3.76c-23.782,-0.177 -45.964,-12.007 -59.361,-31.656c-13.397,-19.65 -16.306,-44.62 -7.783,-66.823c25.78,-67.161 39.89,-140.079 39.89,-216.268c0,-85.19 -17.644,-166.291 -49.511,-239.826c-9.711,-22.409 -7.487,-48.2 5.916,-68.616c13.403,-20.416 36.184,-32.712 60.606,-32.712Zm0,72.5c35.698,82.376 55.489,173.222 55.489,268.654c0,85.343 -15.828,167.019 -44.706,242.249c262.622,1.957 568.562,4.218 585.233,4.218l0,2159.588c0,63.681 231.181,242.114 259.186,217.59c28.005,24.525 259.186,-153.909 259.186,-217.59l0,-2578.46c0,-58.199 -34.505,-96.371 -80.872,-96.371c-63.381,-0 -97.71,-0.121 -178.32,0.044c-81.395,-0.164 -170.319,0.078 -233.699,0.078l-621.498,0Zm-294.455,896.032l0.043,1390.392c0,7.781 5.622,17.654 11.511,30.134c10.49,22.231 25.454,47.719 42.927,74.847c87.98,136.592 237.432,310.288 256.04,330.673c15.102,16.544 264.944,278.303 429.536,402.924c111.843,84.682 254.589,162.285 347.831,201.862c28.037,11.9 49.497,21.176 61.781,22.78c12.262,-1.605 33.721,-10.881 61.756,-22.78c93.242,-39.576 235.988,-117.18 347.831,-201.862c164.592,-124.621 414.434,-386.38 429.536,-402.924c18.609,-20.385 168.06,-194.081 256.04,-330.673c17.473,-27.128 32.437,-52.616 42.927,-74.847c5.889,-12.48 11.511,-22.352 11.511,-30.133c0,-52.515 0.635,-1378.297 0.786,-1705.831l-505.469,-0c-63.821,0 -107.843,-19.384 -137.763,-53.061c-26.942,-30.325 -44.566,-76.659 -44.566,-146.462l0,-284.822c0,-67.025 21.532,-107.112 53.297,-132.877c28.106,-22.798 69.727,-35.872 129.032,-35.872l1016.556,0c38.152,0 76.438,11.855 106.007,42.315c24.296,25.027 45.547,65.542 45.547,133.647c0,28.307 -2.423,97.339 -0.557,1073.512c0.168,88.006 1.851,1032.727 -1.989,1112.921c-11.756,245.452 -196.593,606.074 -534.693,944.175c-310.346,310.346 -735.328,583.998 -783.895,614.483c-160.271,100.602 -203.17,123.838 -253.187,152.231c-26.45,15.014 -91.868,57.524 -149.683,80.173c-32.559,12.755 -63.832,19.206 -89.01,18.358c-25.25,0.845 -56.514,-5.606 -89.066,-18.358c-57.815,-22.649 -123.233,-65.159 -149.683,-80.173c-50.017,-28.392 -92.916,-51.628 -253.187,-152.231c-48.566,-30.485 -473.549,-304.138 -783.895,-614.483c-338.1,-338.1 -522.937,-698.723 -534.693,-944.175c-3.841,-80.194 -2.158,-1024.914 -1.989,-1112.921c0.201,-104.972 0.352,-199.454 0.462,-284.523c0.031,-24.286 12.221,-46.943 32.469,-60.353c20.248,-13.41 45.866,-15.79 68.238,-6.341c72.168,30.48 151.477,47.313 234.688,47.313c80.331,0 157.027,-15.688 227.171,-44.198c22.352,-9.085 47.76,-6.455 67.777,7.016c20.017,13.471 32.022,36.018 32.022,60.146Zm-72.5,0.002c-78.575,31.938 -164.484,49.535 -254.471,49.535c-93.213,0 -182.052,-18.882 -262.895,-53.025c-0.11,85.083 -0.261,179.58 -0.462,284.568c-0.168,87.721 -1.922,1029.38 1.907,1109.314c11.192,233.689 191.644,574.481 513.541,896.378c305.277,305.277 723.4,574.356 771.174,604.344c158.531,99.51 200.959,122.502 250.433,150.586c35.484,20.143 145.183,93.854 202.93,88.983c57.747,4.871 167.446,-68.84 202.93,-88.983c49.474,-28.084 91.903,-51.076 250.433,-150.586c47.773,-29.987 465.896,-299.066 771.174,-604.344c321.897,-321.897 502.349,-662.689 513.541,-896.378c3.828,-79.934 2.074,-1021.593 1.907,-1109.314c-1.867,-976.298 0.557,-1045.339 0.557,-1073.65c0,-83.777 -40.493,-103.461 -79.055,-103.461l-1016.556,0c-75.857,0 -109.829,20.392 -109.829,96.249l0,284.822c0,92.795 33.432,127.024 109.829,127.024l578.002,0c0,17.829 -0.818,1718.708 -0.818,1778.331c0,102.593 -302.078,454.565 -329.433,484.532c-15.441,16.915 -271.026,284.423 -439.317,411.846c-166.863,126.34 -399.609,237.558 -453.363,239.524c-53.754,-1.966 -286.501,-113.184 -453.363,-239.524c-168.292,-127.422 -423.876,-394.93 -439.317,-411.846c-27.355,-29.967 -329.433,-381.939 -329.433,-484.532l-0.043,-1390.391Z" style="fill:#272525;"/></g><defs><linearGradient id="_Linear1" x1="0" y1="0" x2="1" y2="0" gradientUnits="userSpaceOnUse" gradientTransform="matrix(-3121.620903,-2617.344962,-3027.891358,3611.266033,3463.845514,3373.017594)"><stop offset="0" style="stop-color:#e4c46a;stop-opacity:1"/><stop offset="0.49" style="stop-color:#b98a2e;stop-opacity:1"/><stop offset="1" style="stop-color:#0f7a4b;stop-opacity:1"/></linearGradient></defs></svg>