<?xml version="1.0" encoding="UTF-8" standalone="no"?><!DOCTYPE svg PUBLIC "-//W3C//DTD SVG 1.1//EN" "http://www.w3.org/Graphics/SVG/1.1/DTD/svg11.dtd"><svg width="100%" height="100%" viewBox="0 0 4267 4267" version="1.1" xmlns="http://www.w3.org/2000/svg" xmlns:xlink="http://www.w3.org/1999/xlink" xml:space="preserve" xmlns:serif="http://www.serif.com/" style="fill-rule:evenodd;clip-rule:evenodd;stroke-linejoin:round;stroke-miterlimit:2;"><rect id="Predixa-Logo" serif:id="Predixa Logo" x="0" y="0" width="4266.481" height="4266.481" style="fill:none;"/><g id="Predict-Logo" serif:id="Predict Logo" style="fill:#0a0a0c;"><path d="M811.671,197.847c49.04,-71.561 107.858,-56.923 129.16,-17.025c21.302,39.898 5.086,105.055 -40.54,162.892c-32.748,43.744 -97.846,79.437 -150.068,101.037c-36.006,-43.557 -76.78,-105.599 -85.204,-159.59c-13.193,-72.476 3.023,-137.633 40.54,-162.892c37.517,-25.259 96.335,-10.621 106.113,75.579Zm-152.538,612.914c-49.04,71.561 -107.858,56.923 -129.16,17.025c-21.302,-39.898 -5.086,-105.055 40.54,-162.892c32.748,-43.744 97.846,-79.437 150.068,-101.037c36.006,43.557 76.78,105.599 85.204,159.59c13.193,72.476 -3.023,137.633 -40.54,162.892c-37.517,25.259 -96.335,10.621 -106.113,-75.579Zm382.726,-230.188c71.561,49.04 56.923,107.858 17.025,129.16c-39.898,21.302 -105.055,5.086 -162.892,-40.54c-43.744,-32.748 -79.437,-97.846 -101.037,-150.068c43.557,-36.006 105.599,-76.78 159.59,-85.204c72.476,-13.193 137.633,3.023 162.892,40.54c25.259,37.517 10.621,96.335 -75.579,106.113Zm-612.914,-152.538c-71.561,-49.04 -56.923,-107.858 -17.025,-129.16c39.898,-21.302 105.055,-5.086 162.892,40.54c43.744,32.748 79.437,97.846 101.037,150.068c-43.557,36.006 -105.599,76.78 -159.59,85.204c-72.476,13.193 -137.633,-3.023 -162.892,-40.54c-25.259,-37.517 -10.621,-96.335 75.579,-106.113Z"/><path d="M1280.282,159.152l621.498,-0c63.38,0 152.304,-0.242 233.699,-0.078c80.61,-0.166 114.939,-0.044 178.32,-0.044c46.367,0 80.872,38.172 80.872,96.371l0,2578.46c0,63.681 -231.181,242.114 -259.186,217.59c-28.005,24.525 -259.186,-153.909 -259.186,-217.59l0,-2159.588c-16.671,-0 -322.611,-2.261 -585.233,-4.218c28.878,-75.23 44.706,-156.906 44.706,-242.249c0,-95.432 -19.791,-186.278 -55.489,-268.654Zm-366.955,896.034l0.043,1390.391c0,102.593 302.078,454.565 329.433,484.532c15.441,16.915 271.026,284.423 439.317,411.846c166.863,126.34 399.609,237.558 453.363,239.524c53.754,-1.966 286.501,-113.184 453.363,-239.524c168.292,-127.422 423.876,-394.93 439.317,-411.846c27.355,-29.967 329.433,-381.939 329.433,-484.532c0,-59.623 0.818,-1760.502 0.818,-1778.331l-578.002,-0c-76.397,0 -109.829,-34.229 -109.829,-127.024l0,-284.822c0,-75.857 33.972,-96.249 109.829,-96.249l1016.556,0c38.561,0 79.055,19.684 79.055,103.461c0,28.311 -2.423,97.352 -0.557,1073.65c0.168,87.721 1.922,1029.38 -1.907,1109.314c-11.192,233.689 -191.644,574.481 -513.541,896.378c-305.277,305.277 -723.4,574.356 -771.174,604.344c-158.531,99.51 -200.959,122.502 -250.433,150.586c-35.484,20.143 -145.183,93.854 -202.93,88.983c-57.747,4.871 -167.446,-68.84 -202.93,-88.983c-49.474,-28.084 -91.903,-51.076 -250.433,-150.586c-47.773,-29.987 -465.896,-299.066 -771.174,-604.344c-321.897,-321.897 -502.349,-662.689 -513.541,-896.378c-3.828,-79.934 -2.074,-1021.593 -1.907,-1109.314c0.201,-104.989 0.352,-199.486 0.462,-284.568c80.844,34.144 169.682,53.025 262.895,53.025c89.987,0 175.896,-17.597 254.471,-49.535Z"/></g></svg>