<?xml version="1.0" encoding="UTF-8" standalone="no"?><!DOCTYPE svg PUBLIC "-//W3C//DTD SVG 1.1//EN" "http://www.w3.org/Graphics/SVG/1.1/DTD/svg11.dtd"><svg width="100%" height="100%" viewBox="0 0 4267 4267" version="1.1" xmlns="http://www.w3.org/2000/svg" xmlns:xlink="http://www.w3.org/1999/xlink" xml:space="preserve" xmlns:serif="http://www.serif.com/" style="fill-rule:evenodd;clip-rule:evenodd;stroke-linejoin:round;stroke-miterlimit:2;"><rect id="Ecosystem-Logo" serif:id="Ecosystem Logo" x="0" y="0" width="4266.481" height="4266.481" style="fill:none;"/><path d="M2133.24,4114.145c-56.817,4.792 -164.75,-67.732 -199.662,-87.55c-48.677,-27.632 -90.423,-50.253 -246.401,-148.161c-47.004,-29.504 -458.394,-294.25 -758.755,-594.612c-316.714,-316.714 -494.26,-652.018 -505.272,-881.943c-3.767,-78.647 -2.041,-1005.142 -1.876,-1091.451c1.837,-960.577 -0.548,-1028.506 -0.548,-1056.361c0,-82.428 39.841,-101.795 77.782,-101.795l1404.79,-0c62.359,0 149.851,-0.238 229.936,-0.077c79.312,-0.163 113.088,-0.043 175.449,-0.043c45.621,0 79.57,37.557 79.57,94.819l0,2536.939c0,62.655 -227.459,238.216 -255.012,214.086c-27.554,24.13 -255.012,-151.43 -255.012,-214.086l0,-2124.812c-28.915,-0 -942.353,-6.913 -947.476,-6.913l0.054,1749.694c0,100.941 297.213,447.246 324.128,476.73c15.193,16.643 266.662,279.843 432.243,405.214c164.176,124.306 393.174,233.732 446.063,235.667c52.889,-1.935 281.887,-111.361 446.063,-235.667c165.582,-125.37 417.05,-388.571 432.243,-405.214c26.915,-29.484 324.128,-375.789 324.128,-476.73c0,-58.663 0.805,-1732.153 0.805,-1749.694l-568.694,-0c-75.167,0 -108.061,-33.678 -108.061,-124.978l0,-280.235c0,-74.635 33.425,-94.699 108.061,-94.699l1000.187,0c37.94,0 77.782,19.367 77.782,101.795c0,27.855 -2.384,95.784 -0.548,1056.361c0.165,86.309 1.891,1012.804 -1.876,1091.451c-11.012,229.926 -188.558,565.23 -505.272,881.943c-300.361,300.361 -711.752,565.107 -758.755,594.612c-155.978,97.908 -197.723,120.529 -246.401,148.161c-34.912,19.818 -142.845,92.342 -199.662,87.55Z" style="fill:#0a0a0c;"/></svg>