<?xml version="1.0" encoding="UTF-8" standalone="no"?><!DOCTYPE svg PUBLIC "-//W3C//DTD SVG 1.1//EN" "http://www.w3.org/Graphics/SVG/1.1/DTD/svg11.dtd"><svg width="100%" height="100%" viewBox="0 0 4267 4267" version="1.1" xmlns="http://www.w3.org/2000/svg" xmlns:xlink="http://www.w3.org/1999/xlink" xml:space="preserve" xmlns:serif="http://www.serif.com/" style="fill-rule:evenodd;clip-rule:evenodd;stroke-linejoin:round;stroke-miterlimit:2;"><rect id="Ecosystem-Logo" serif:id="Ecosystem Logo" x="0" y="0" width="4266.481" height="4266.481" style="fill:none;"/><path d="M2133.24,4114.145c-56.817,4.792 -164.75,-67.732 -199.662,-87.55c-48.677,-27.632 -90.423,-50.253 -246.401,-148.161c-47.004,-29.504 -458.394,-294.25 -758.755,-594.612c-316.714,-316.714 -494.26,-652.018 -505.272,-881.943c-3.767,-78.647 -2.041,-1005.142 -1.876,-1091.451c1.837,-960.577 -0.548,-1028.506 -0.548,-1056.361c0,-82.428 39.841,-101.795 77.782,-101.795l1404.79,-0c62.359,0 149.851,-0.238 229.936,-0.077c79.312,-0.163 113.088,-0.043 175.449,-0.043c45.621,0 79.57,37.557 79.57,94.819l0,2536.939c0,62.655 -227.459,238.216 -255.012,214.086c-27.554,24.13 -255.012,-151.43 -255.012,-214.086l0,-2124.812c-28.915,-0 -942.353,-6.913 -947.476,-6.913l0.054,1749.694c0,100.941 297.213,447.246 324.128,476.73c15.193,16.643 266.662,279.843 432.243,405.214c164.176,124.306 393.174,233.732 446.063,235.667c52.889,-1.935 281.887,-111.361 446.063,-235.667c165.582,-125.37 417.05,-388.571 432.243,-405.214c26.915,-29.484 324.128,-375.789 324.128,-476.73c0,-58.663 0.805,-1732.153 0.805,-1749.694l-568.694,-0c-75.167,0 -108.061,-33.678 -108.061,-124.978l0,-280.235c0,-74.635 33.425,-94.699 108.061,-94.699l1000.187,0c37.94,0 77.782,19.367 77.782,101.795c0,27.855 -2.384,95.784 -0.548,1056.361c0.165,86.309 1.891,1012.804 -1.876,1091.451c-11.012,229.926 -188.558,565.23 -505.272,881.943c-300.361,300.361 -711.752,565.107 -758.755,594.612c-155.978,97.908 -197.723,120.529 -246.401,148.161c-34.912,19.818 -142.845,92.342 -199.662,87.55Z" style="fill:url(#_Linear1);"/><path d="M2133.29,4187.576l-0.106,-0c-25.046,0.805 -56.029,-5.568 -88.277,-18.201c-56.982,-22.322 -121.462,-64.207 -147.531,-79.005c-49.227,-27.944 -91.448,-50.812 -249.186,-149.825c-47.806,-30.008 -466.134,-299.38 -771.623,-604.868c-333.103,-333.103 -515.085,-688.465 -526.667,-930.29c-3.779,-78.91 -2.125,-1008.502 -1.96,-1095.099c1.836,-960.449 -0.548,-1028.369 -0.548,-1056.221c0,-67.732 21.216,-107.998 45.379,-132.888c29.497,-30.385 67.678,-42.24 105.736,-42.24l1404.79,-0c62.36,0 149.836,-0.238 229.931,-0.077c79.275,-0.163 113.077,-0.043 175.453,-0.043c83.764,0 152.903,63.014 152.903,168.153l0,2536.939c0,26.05 -15.848,66.877 -51.007,107.973c-53.453,62.479 -151.443,137.952 -208.598,165.286c-26.429,12.639 -48.993,16.768 -63.609,16.39c-1.752,-0.045 -3.47,-0.136 -5.115,-0.269c-1.683,0.133 -3.4,0.223 -5.149,0.269c-14.616,0.378 -37.18,-3.751 -63.609,-16.39c-57.155,-27.333 -155.146,-102.806 -208.598,-165.286c-35.159,-41.097 -51.007,-81.923 -51.007,-107.973l-0,-2051.945c-177.235,-1.237 -624.261,-4.596 -800.807,-5.91l0.052,1675.823c0,7.447 5.498,16.851 11.134,28.795c10.289,21.806 24.97,46.803 42.109,73.412c86.493,134.283 233.419,305.043 251.713,325.083c14.849,16.267 260.51,273.652 422.35,396.189c109.905,83.215 250.177,159.474 341.804,198.365c27.209,11.549 48.029,20.631 60.007,22.243c11.949,-1.612 32.769,-10.694 59.978,-22.243c91.626,-38.891 231.898,-115.15 341.804,-198.365c161.839,-122.537 407.5,-379.922 422.35,-396.189c18.294,-20.04 165.22,-190.8 251.713,-325.083c17.139,-26.609 31.819,-51.607 42.109,-73.412c5.636,-11.944 11.134,-21.347 11.134,-28.794c0,-51.564 0.622,-1350.742 0.772,-1676.361l-495.328,-0c-63.501,0 -107.271,-19.37 -137.04,-52.879c-26.758,-30.118 -44.354,-76.106 -44.354,-145.433l0,-280.235c0,-66.75 21.545,-106.632 53.179,-132.291c27.933,-22.657 69.274,-35.741 128.215,-35.741l1000.187,0c38.058,0 76.239,11.856 105.736,42.24c24.163,24.89 45.379,65.156 45.379,132.888c0,27.852 -2.384,95.772 -0.548,1056.221c0.166,86.597 1.82,1016.189 -1.96,1095.099c-11.582,241.824 -193.563,597.187 -526.667,930.29c-305.488,305.488 -723.817,574.86 -771.623,604.868c-157.738,99.012 -199.959,121.881 -249.186,149.825c-26.068,14.798 -90.549,56.683 -147.531,79.005c-32.251,12.634 -63.237,19.008 -88.285,18.201Zm-0.049,-73.43c56.817,4.792 164.75,-67.732 199.662,-87.55c48.677,-27.632 90.423,-50.253 246.401,-148.161c47.004,-29.504 458.394,-294.25 758.755,-594.612c316.714,-316.714 494.26,-652.018 505.272,-881.943c3.767,-78.647 2.041,-1005.142 1.876,-1091.451c-1.837,-960.577 0.548,-1028.506 0.548,-1056.361c0,-82.428 -39.841,-101.795 -77.782,-101.795l-1000.187,0c-74.635,0 -108.061,20.064 -108.061,94.699l-0,280.235c0,91.301 32.894,124.978 108.061,124.978l568.694,0c0,17.542 -0.805,1691.031 -0.805,1749.694c0,100.941 -297.213,447.246 -324.128,476.73c-15.193,16.643 -266.662,279.843 -432.243,405.214c-164.176,124.306 -393.174,233.732 -446.063,235.667c-52.889,-1.935 -281.887,-111.361 -446.063,-235.667c-165.582,-125.37 -417.05,-388.571 -432.243,-405.214c-26.915,-29.484 -324.128,-375.789 -324.128,-476.73l-0.054,-1749.694c5.123,-0 918.561,6.913 947.476,6.913l0,2124.812c-0,62.655 227.459,238.216 255.012,214.086c27.554,24.13 255.012,-151.43 255.012,-214.086l0,-2536.939c0,-57.262 -33.949,-94.819 -79.57,-94.819c-62.361,-0 -96.137,-0.119 -175.449,0.043c-80.084,-0.162 -167.576,0.077 -229.936,0.077l-1404.79,0c-37.94,0 -77.782,19.367 -77.782,101.795c0,27.855 2.384,95.784 0.548,1056.361c-0.165,86.309 -1.891,1012.804 1.876,1091.451c11.012,229.926 188.558,565.23 505.272,881.943c300.361,300.361 711.752,565.107 758.755,594.612c155.978,97.908 197.723,120.529 246.401,148.161c34.912,19.818 142.845,92.342 199.662,87.55Z" style="fill:#272525;fill-opacity:1;"/><defs><linearGradient id="_Linear1" x1="0" y1="0" x2="1" y2="0" gradientUnits="userSpaceOnUse" gradientTransform="matrix(-3320.939547,-1981.131433,-2291.883888,3841.849012,3741.666667,2133.240471)"><stop offset="0" style="stop-color:#d67341;stop-opacity:1"/><stop offset="1" style="stop-color:#ffe7a4;stop-opacity:1"/></linearGradient></defs></svg>